<?xml version="1.0" encoding="UTF-8" standalone="no"?>
<!-- Created with Inkscape (http://www.inkscape.org/) -->

<svg
   xmlns:dc="http://purl.org/dc/elements/1.1/"
   xmlns:cc="http://creativecommons.org/ns#"
   xmlns:rdf="http://www.w3.org/1999/02/22-rdf-syntax-ns#"
   xmlns:svg="http://www.w3.org/2000/svg"
   xmlns="http://www.w3.org/2000/svg"
   xmlns:xlink="http://www.w3.org/1999/xlink"
   xmlns:sodipodi="http://sodipodi.sourceforge.net/DTD/sodipodi-0.dtd"
   xmlns:inkscape="http://www.inkscape.org/namespaces/inkscape"
   width="1920"
   height="1080"
   id="svg2"
   version="1.1"
   inkscape:version="0.48.4 r9939"
   sodipodi:docname="HUD.svg"
   inkscape:export-filename="C:\Users\flomar\Projects\rFactor2TimeTrial\trunk\QTimeTrial\resources\png\HUD.png"
   inkscape:export-xdpi="90"
   inkscape:export-ydpi="90">
  <defs
     id="defs4">
    <linearGradient
       id="linearGradient4676">
      <stop
         style="stop-color:#ff0000;stop-opacity:1;"
         offset="0"
         id="stop4678" />
      <stop
         style="stop-color:#640000;stop-opacity:1;"
         offset="1"
         id="stop4680" />
    </linearGradient>
    <linearGradient
       id="linearGradient4897">
      <stop
         id="stop4899"
         offset="0"
         style="stop-color:#ff0000;stop-opacity:1;" />
      <stop
         style="stop-color:#c80000;stop-opacity:1;"
         offset="0.85000002"
         id="stop4901" />
      <stop
         id="stop4903"
         offset="1"
         style="stop-color:#640000;stop-opacity:1;" />
    </linearGradient>
    <linearGradient
       id="linearGradient4873">
      <stop
         style="stop-color:#ffff00;stop-opacity:1;"
         offset="0"
         id="stop4875" />
      <stop
         id="stop4877"
         offset="0.85000002"
         style="stop-color:#c8c800;stop-opacity:1;" />
      <stop
         style="stop-color:#646400;stop-opacity:1;"
         offset="1"
         id="stop4879" />
    </linearGradient>
    <linearGradient
       id="linearGradient4847">
      <stop
         id="stop4849"
         offset="0"
         style="stop-color:#00ff00;stop-opacity:1;" />
      <stop
         style="stop-color:#00c800;stop-opacity:1;"
         offset="0.85000002"
         id="stop4851" />
      <stop
         id="stop4853"
         offset="1"
         style="stop-color:#006400;stop-opacity:1;" />
    </linearGradient>
    <linearGradient
       id="linearGradient4274">
      <stop
         style="stop-color:#000000;stop-opacity:1;"
         offset="0"
         id="stop4276" />
      <stop
         id="stop4282"
         offset="0.85000002"
         style="stop-color:#646464;stop-opacity:1;" />
      <stop
         style="stop-color:#c8c8c8;stop-opacity:1;"
         offset="1"
         id="stop4278" />
    </linearGradient>
    <radialGradient
       inkscape:collect="always"
       xlink:href="#linearGradient4847"
       id="radialGradient7056"
       gradientUnits="userSpaceOnUse"
       gradientTransform="matrix(1,0,0,0.97333328,0,17.513266)"
       cx="409.11179"
       cy="656.74609"
       fx="409.11179"
       fy="656.74609"
       r="75.761444" />
    <radialGradient
       inkscape:collect="always"
       xlink:href="#linearGradient4847"
       id="radialGradient7058"
       gradientUnits="userSpaceOnUse"
       gradientTransform="matrix(1,0,0,0.97333328,0,17.513266)"
       cx="409.11179"
       cy="656.74609"
       fx="409.11179"
       fy="656.74609"
       r="75.761444" />
    <radialGradient
       inkscape:collect="always"
       xlink:href="#linearGradient4847"
       id="radialGradient7060"
       gradientUnits="userSpaceOnUse"
       gradientTransform="matrix(1,0,0,0.97333328,0,17.513266)"
       cx="409.11179"
       cy="656.74609"
       fx="409.11179"
       fy="656.74609"
       r="75.761444" />
    <radialGradient
       inkscape:collect="always"
       xlink:href="#linearGradient4873"
       id="radialGradient7062"
       gradientUnits="userSpaceOnUse"
       gradientTransform="matrix(1,0,0,0.97333328,0,17.513266)"
       cx="409.11179"
       cy="656.74609"
       fx="409.11179"
       fy="656.74609"
       r="75.761444" />
    <radialGradient
       inkscape:collect="always"
       xlink:href="#linearGradient4873"
       id="radialGradient7064"
       gradientUnits="userSpaceOnUse"
       gradientTransform="matrix(1,0,0,0.97333328,0,17.513266)"
       cx="409.11179"
       cy="656.74609"
       fx="409.11179"
       fy="656.74609"
       r="75.761444" />
    <radialGradient
       inkscape:collect="always"
       xlink:href="#linearGradient4873"
       id="radialGradient7066"
       gradientUnits="userSpaceOnUse"
       gradientTransform="matrix(1,0,0,0.97333328,0,17.513266)"
       cx="409.11179"
       cy="656.74609"
       fx="409.11179"
       fy="656.74609"
       r="75.761444" />
    <radialGradient
       inkscape:collect="always"
       xlink:href="#linearGradient4873"
       id="radialGradient7068"
       gradientUnits="userSpaceOnUse"
       gradientTransform="matrix(1,0,0,0.97333328,0,17.513266)"
       cx="409.11179"
       cy="656.74609"
       fx="409.11179"
       fy="656.74609"
       r="75.761444" />
    <radialGradient
       inkscape:collect="always"
       xlink:href="#linearGradient4897"
       id="radialGradient7070"
       gradientUnits="userSpaceOnUse"
       gradientTransform="matrix(1,0,0,0.97333328,0,17.513266)"
       cx="409.11179"
       cy="656.74609"
       fx="409.11179"
       fy="656.74609"
       r="75.761444" />
    <radialGradient
       inkscape:collect="always"
       xlink:href="#linearGradient4897"
       id="radialGradient7072"
       gradientUnits="userSpaceOnUse"
       gradientTransform="matrix(1,0,0,0.97333328,0,17.513266)"
       cx="409.11179"
       cy="656.74609"
       fx="409.11179"
       fy="656.74609"
       r="75.761444" />
  </defs>
  <sodipodi:namedview
     id="base"
     pagecolor="#ffffff"
     bordercolor="#666666"
     borderopacity="1.0"
     inkscape:pageopacity="0.0"
     inkscape:pageshadow="2"
     inkscape:zoom="0.70710678"
     inkscape:cx="939.96172"
     inkscape:cy="537.89609"
     inkscape:document-units="px"
     inkscape:current-layer="layer1"
     showgrid="false"
     inkscape:window-width="1920"
     inkscape:window-height="1018"
     inkscape:window-x="-8"
     inkscape:window-y="-8"
     inkscape:window-maximized="1"
     inkscape:showpageshadow="false" />
  <metadata
     id="metadata7">
    <rdf:RDF>
      <cc:Work
         rdf:about="">
        <dc:format>image/svg+xml</dc:format>
        <dc:type
           rdf:resource="http://purl.org/dc/dcmitype/StillImage" />
        <dc:title></dc:title>
      </cc:Work>
    </rdf:RDF>
  </metadata>
  <g
     inkscape:groupmode="layer"
     id="layer1"
     inkscape:label="HUD">
    <path
       style="display:inline;opacity:0.50000000000000000;fill:#000000;fill-opacity:1;stroke:none"
       d="m 0,0 0,32 678,0 32,32 500,0 32,-32 678,0 0,-32 L 0,0 z"
       id="rect3078"
       inkscape:connector-curvature="0" />
    <text
       xml:space="preserve"
       style="font-size:22.62983513000000000px;font-style:normal;font-weight:normal;line-height:125%;letter-spacing:0px;word-spacing:0px;fill:#b3b3b3;fill-opacity:1;stroke:none;font-family:Sans"
       x="7.2044201"
       y="24"
       id="text4012"
       sodipodi:linespacing="125%"><tspan
         sodipodi:role="line"
         id="tspan4014"
         x="7.2044201"
         y="24"
         style="font-style:normal;font-variant:normal;font-weight:normal;font-stretch:normal;fill:#b3b3b3;font-family:Bitwise;-inkscape-font-specification:Bitwise">LAP</tspan></text>
    <path
       style="opacity:0.5;fill:#000000;fill-opacity:1;stroke:none;display:inline"
       d="m 660,952 -96,96 -564,0 0,32 1920,0 0,-32 -564,0 -96,-96 -600,0 z"
       id="path3082"
       inkscape:connector-curvature="0" />
    <text
       sodipodi:linespacing="125%"
       id="text4024"
       y="1072"
       x="42.961327"
       style="font-size:22.62983513000000000px;font-style:normal;font-weight:normal;line-height:125%;letter-spacing:0px;word-spacing:0px;fill:#b3b3b3;fill-opacity:1;stroke:none;font-family:Sans"
       xml:space="preserve"><tspan
         style="font-style:normal;font-variant:normal;font-weight:normal;font-stretch:normal;fill:#b3b3b3;font-family:Bitwise;-inkscape-font-specification:Bitwise"
         y="1072"
         x="42.961327"
         id="tspan4026"
         sodipodi:role="line">FUEL</tspan></text>
    <text
       xml:space="preserve"
       style="font-size:22.62983513000000000px;font-style:normal;font-weight:normal;line-height:125%;letter-spacing:0px;word-spacing:0px;fill:#b3b3b3;fill-opacity:1;stroke:none;font-family:Sans"
       x="334.96133"
       y="1072"
       id="text4028"
       sodipodi:linespacing="125%"><tspan
         sodipodi:role="line"
         id="tspan4030"
         x="334.96133"
         y="1072"
         style="font-style:normal;font-variant:normal;font-weight:normal;font-stretch:normal;fill:#b3b3b3;font-family:Bitwise;-inkscape-font-specification:Bitwise">ENGINE</tspan></text>
    <text
       sodipodi:linespacing="125%"
       id="text4032"
       y="1072"
       x="1494.6298"
       style="font-size:22.62983513000000000px;font-style:normal;font-weight:normal;line-height:125%;letter-spacing:0px;word-spacing:0px;fill:#b3b3b3;fill-opacity:1;stroke:none;font-family:Sans"
       xml:space="preserve"><tspan
         style="font-style:normal;font-variant:normal;font-weight:normal;font-stretch:normal;fill:#b3b3b3;font-family:Bitwise;-inkscape-font-specification:Bitwise"
         y="1072"
         x="1494.6298"
         id="tspan4034"
         sodipodi:role="line">BRAKES</tspan></text>
    <text
       xml:space="preserve"
       style="font-size:22.62983513000000000px;font-style:normal;font-weight:normal;line-height:125%;letter-spacing:0px;word-spacing:0px;fill:#b3b3b3;fill-opacity:1;stroke:none;font-family:Sans"
       x="1813.9447"
       y="1072"
       id="text4036"
       sodipodi:linespacing="125%"><tspan
         sodipodi:role="line"
         id="tspan4038"
         x="1813.9447"
         y="1072"
         style="font-style:normal;font-variant:normal;font-weight:normal;font-stretch:normal;fill:#b3b3b3;font-family:Bitwise;-inkscape-font-specification:Bitwise">TIRES</tspan></text>
    <text
       sodipodi:linespacing="125%"
       id="text3049"
       y="24"
       x="299.20441"
       style="font-size:22.62983513000000000px;font-style:normal;font-weight:normal;line-height:125%;letter-spacing:0px;word-spacing:0px;fill:#b3b3b3;fill-opacity:1;stroke:none;font-family:Sans"
       xml:space="preserve"><tspan
         style="font-style:normal;font-variant:normal;font-weight:normal;font-stretch:normal;fill:#b3b3b3;font-family:Bitwise;-inkscape-font-specification:Bitwise"
         y="24"
         x="299.20441"
         id="tspan3051"
         sodipodi:role="line">LST</tspan></text>
    <text
       sodipodi:linespacing="125%"
       id="text3082"
       y="24"
       x="1575.1823"
       style="font-size:22.62983513px;font-style:normal;font-weight:normal;line-height:125%;letter-spacing:0px;word-spacing:0px;fill:#b3b3b3;fill-opacity:1;stroke:none;font-family:Sans"
       xml:space="preserve"><tspan
         style="font-style:normal;font-variant:normal;font-weight:normal;font-stretch:normal;fill:#b3b3b3;font-family:Bitwise;-inkscape-font-specification:Bitwise"
         y="24"
         x="1575.1823"
         id="tspan3084"
         sodipodi:role="line">PER</tspan></text>
    <text
       xml:space="preserve"
       style="font-size:22.62983513px;font-style:normal;font-weight:normal;line-height:125%;letter-spacing:0px;word-spacing:0px;fill:#b3b3b3;fill-opacity:1;stroke:none;font-family:Sans"
       x="1869.6573"
       y="24"
       id="text3086"
       sodipodi:linespacing="125%"><tspan
         sodipodi:role="line"
         id="tspan3088"
         x="1869.6573"
         y="24"
         style="font-style:normal;font-variant:normal;font-weight:normal;font-stretch:normal;fill:#b3b3b3;font-family:Bitwise;-inkscape-font-specification:Bitwise">ABS</tspan></text>
    <text
       xml:space="preserve"
       style="font-size:18.41623116px;font-style:normal;font-weight:normal;line-height:125%;letter-spacing:0px;word-spacing:0px;fill:#b3b3b3;fill-opacity:1;stroke:none;display:inline;font-family:Sans"
       x="890.04858"
       y="1073.1217"
       id="text3971"
       sodipodi:linespacing="125%"><tspan
         sodipodi:role="line"
         id="tspan3973"
         x="890.04858"
         y="1073.1217"
         style="font-style:normal;font-variant:normal;font-weight:normal;font-stretch:normal;fill:#b3b3b3;font-family:Copperplate;-inkscape-font-specification:Copperplate">Powered By Qt</tspan></text>
    <text
       sodipodi:linespacing="125%"
       id="text3090"
       y="57.435688"
       x="916.32324"
       style="font-size:15.33795166px;font-style:normal;font-weight:normal;line-height:125%;letter-spacing:0px;word-spacing:0px;fill:#b3b3b3;fill-opacity:1;stroke:none;display:inline;font-family:Sans"
       xml:space="preserve"><tspan
         style="font-style:normal;font-variant:normal;font-weight:normal;font-stretch:normal;fill:#b3b3b3;font-family:Copperplate;-inkscape-font-specification:Copperplate"
         y="57.435688"
         x="916.32324"
         id="tspan3092"
         sodipodi:role="line">QTimeTrial</tspan></text>
  </g>
  <g
     inkscape:groupmode="layer"
     id="layer2"
     inkscape:label="ITEMS"
     style="display:inline">
    <path
       sodipodi:type="arc"
       style="fill:#ff00ff;fill-opacity:1;stroke:none"
       id="path3980"
       sodipodi:cx="279.30719"
       sodipodi:cy="341.07343"
       sodipodi:rx="53.033009"
       sodipodi:ry="48.790367"
       d="m 332.3402,341.07343 a 53.033009,48.790367 0 1 1 -106.06602,0 53.033009,48.790367 0 1 1 106.06602,0 z"
       transform="matrix(0.18856181,0,0,0.20495849,-34.666669,994.09411)" />
    <path
       transform="matrix(0.18856181,0,0,0.20495849,1849.3333,994.09411)"
       d="m 332.3402,341.07343 a 53.033009,48.790367 0 1 1 -106.06602,0 53.033009,48.790367 0 1 1 106.06602,0 z"
       sodipodi:ry="48.790367"
       sodipodi:rx="53.033009"
       sodipodi:cy="341.07343"
       sodipodi:cx="279.30719"
       id="path3986"
       style="fill:#ff00ff;fill-opacity:1;stroke:none"
       sodipodi:type="arc" />
    <path
       transform="matrix(0.18856181,0,0,0.20495849,257.33333,994.09411)"
       d="m 332.3402,341.07343 a 53.033009,48.790367 0 1 1 -106.06602,0 53.033009,48.790367 0 1 1 106.06602,0 z"
       sodipodi:ry="48.790367"
       sodipodi:rx="53.033009"
       sodipodi:cy="341.07343"
       sodipodi:cx="279.30719"
       id="path3988"
       style="fill:#ff00ff;fill-opacity:1;stroke:none"
       sodipodi:type="arc" />
    <path
       sodipodi:type="arc"
       style="fill:#ff00ff;fill-opacity:1;stroke:none"
       id="path3990"
       sodipodi:cx="279.30719"
       sodipodi:cy="341.07343"
       sodipodi:rx="53.033009"
       sodipodi:ry="48.790367"
       d="m 332.3402,341.07343 a 53.033009,48.790367 0 1 1 -106.06602,0 53.033009,48.790367 0 1 1 106.06602,0 z"
       transform="matrix(0.18856181,0,0,0.20495849,1557.3333,994.09411)" />
    <rect
       style="fill:#ff00ff;fill-opacity:1;stroke:none"
       id="rect3063"
       width="150"
       height="20"
       x="68"
       y="6" />
    <rect
       y="6"
       x="360"
       height="20"
       width="150"
       id="rect3065"
       style="fill:#ff00ff;fill-opacity:1;stroke:none" />
    <rect
       style="fill:#ff00ff;fill-opacity:1;stroke:none"
       id="rect3067"
       width="150"
       height="20"
       x="1410"
       y="6" />
    <rect
       y="6"
       x="1702"
       height="20"
       width="150"
       id="rect3069"
       style="fill:#ff00ff;fill-opacity:1;stroke:none" />
    <rect
       style="fill:#ff00ff;fill-opacity:1;stroke:none"
       id="rect3071"
       width="300"
       height="40"
       x="810"
       y="6" />
    <g
       id="g3931"
       transform="translate(-69.335131,392.18795)">
      <path
         transform="matrix(0.15084945,0,0,0.16396679,697.20179,493.88734)"
         d="m 332.3402,341.07343 a 53.033009,48.790367 0 1 1 -106.06602,0 53.033009,48.790367 0 1 1 106.06602,0 z"
         sodipodi:ry="48.790367"
         sodipodi:rx="53.033009"
         sodipodi:cy="341.07343"
         sodipodi:cx="279.30719"
         id="path3871"
         style="fill:#ff00ff;fill-opacity:1;stroke:none"
         sodipodi:type="arc" />
      <path
         sodipodi:type="arc"
         style="fill:#ff00ff;fill-opacity:1;stroke:none"
         id="path3873"
         sodipodi:cx="279.30719"
         sodipodi:cy="341.07343"
         sodipodi:rx="53.033009"
         sodipodi:ry="48.790367"
         d="m 332.3402,341.07343 a 53.033009,48.790367 0 1 1 -106.06602,0 53.033009,48.790367 0 1 1 106.06602,0 z"
         transform="matrix(0.15084945,0,0,0.16396679,717.20179,493.88734)" />
      <path
         transform="matrix(0.15084945,0,0,0.16396679,737.20179,493.88734)"
         d="m 332.3402,341.07343 a 53.033009,48.790367 0 1 1 -106.06602,0 53.033009,48.790367 0 1 1 106.06602,0 z"
         sodipodi:ry="48.790367"
         sodipodi:rx="53.033009"
         sodipodi:cy="341.07343"
         sodipodi:cx="279.30719"
         id="path3875"
         style="fill:#ff00ff;fill-opacity:1;stroke:none"
         sodipodi:type="arc" />
      <path
         sodipodi:type="arc"
         style="fill:#ff00ff;fill-opacity:1;stroke:none"
         id="path3877"
         sodipodi:cx="279.30719"
         sodipodi:cy="341.07343"
         sodipodi:rx="53.033009"
         sodipodi:ry="48.790367"
         d="m 332.3402,341.07343 a 53.033009,48.790367 0 1 1 -106.06602,0 53.033009,48.790367 0 1 1 106.06602,0 z"
         transform="matrix(0.15084945,0,0,0.16396679,757.20179,493.88734)" />
      <path
         transform="matrix(0.15084945,0,0,0.16396679,777.20179,493.88734)"
         d="m 332.3402,341.07343 a 53.033009,48.790367 0 1 1 -106.06602,0 53.033009,48.790367 0 1 1 106.06602,0 z"
         sodipodi:ry="48.790367"
         sodipodi:rx="53.033009"
         sodipodi:cy="341.07343"
         sodipodi:cx="279.30719"
         id="path3879"
         style="fill:#ff00ff;fill-opacity:1;stroke:none"
         sodipodi:type="arc" />
      <path
         sodipodi:type="arc"
         style="fill:#ff00ff;fill-opacity:1;stroke:none"
         id="path3881"
         sodipodi:cx="279.30719"
         sodipodi:cy="341.07343"
         sodipodi:rx="53.033009"
         sodipodi:ry="48.790367"
         d="m 332.3402,341.07343 a 53.033009,48.790367 0 1 1 -106.06602,0 53.033009,48.790367 0 1 1 106.06602,0 z"
         transform="matrix(0.15084945,0,0,0.16396679,797.20179,493.88734)" />
      <path
         transform="matrix(0.15084945,0,0,0.16396679,817.20179,493.88734)"
         d="m 332.3402,341.07343 a 53.033009,48.790367 0 1 1 -106.06602,0 53.033009,48.790367 0 1 1 106.06602,0 z"
         sodipodi:ry="48.790367"
         sodipodi:rx="53.033009"
         sodipodi:cy="341.07343"
         sodipodi:cx="279.30719"
         id="path3883"
         style="fill:#ff00ff;fill-opacity:1;stroke:none"
         sodipodi:type="arc" />
      <path
         sodipodi:type="arc"
         style="fill:#ff00ff;fill-opacity:1;stroke:none"
         id="path3885"
         sodipodi:cx="279.30719"
         sodipodi:cy="341.07343"
         sodipodi:rx="53.033009"
         sodipodi:ry="48.790367"
         d="m 332.3402,341.07343 a 53.033009,48.790367 0 1 1 -106.06602,0 53.033009,48.790367 0 1 1 106.06602,0 z"
         transform="matrix(0.15084945,0,0,0.16396679,837.20179,493.88734)" />
      <path
         transform="matrix(0.15084945,0,0,0.16396679,857.20179,493.88734)"
         d="m 332.3402,341.07343 a 53.033009,48.790367 0 1 1 -106.06602,0 53.033009,48.790367 0 1 1 106.06602,0 z"
         sodipodi:ry="48.790367"
         sodipodi:rx="53.033009"
         sodipodi:cy="341.07343"
         sodipodi:cx="279.30719"
         id="path3887"
         style="fill:#ff00ff;fill-opacity:1;stroke:none"
         sodipodi:type="arc" />
      <path
         sodipodi:type="arc"
         style="fill:#ff00ff;fill-opacity:1;stroke:none"
         id="path3889"
         sodipodi:cx="279.30719"
         sodipodi:cy="341.07343"
         sodipodi:rx="53.033009"
         sodipodi:ry="48.790367"
         d="m 332.3402,341.07343 a 53.033009,48.790367 0 1 1 -106.06602,0 53.033009,48.790367 0 1 1 106.06602,0 z"
         transform="matrix(0.15084945,0,0,0.16396679,877.20179,493.88734)" />
      <path
         transform="matrix(0.15084945,0,0,0.16396679,897.20179,493.88734)"
         d="m 332.3402,341.07343 a 53.033009,48.790367 0 1 1 -106.06602,0 53.033009,48.790367 0 1 1 106.06602,0 z"
         sodipodi:ry="48.790367"
         sodipodi:rx="53.033009"
         sodipodi:cy="341.07343"
         sodipodi:cx="279.30719"
         id="path3891"
         style="fill:#ff00ff;fill-opacity:1;stroke:none"
         sodipodi:type="arc" />
      <path
         sodipodi:type="arc"
         style="fill:#ff00ff;fill-opacity:1;stroke:none"
         id="path3893"
         sodipodi:cx="279.30719"
         sodipodi:cy="341.07343"
         sodipodi:rx="53.033009"
         sodipodi:ry="48.790367"
         d="m 332.3402,341.07343 a 53.033009,48.790367 0 1 1 -106.06602,0 53.033009,48.790367 0 1 1 106.06602,0 z"
         transform="matrix(0.15084945,0,0,0.16396679,917.20179,493.88734)" />
      <path
         transform="matrix(0.15084945,0,0,0.16396679,937.20179,493.88734)"
         d="m 332.3402,341.07343 a 53.033009,48.790367 0 1 1 -106.06602,0 53.033009,48.790367 0 1 1 106.06602,0 z"
         sodipodi:ry="48.790367"
         sodipodi:rx="53.033009"
         sodipodi:cy="341.07343"
         sodipodi:cx="279.30719"
         id="path3895"
         style="fill:#ff00ff;fill-opacity:1;stroke:none"
         sodipodi:type="arc" />
      <path
         sodipodi:type="arc"
         style="fill:#ff00ff;fill-opacity:1;stroke:none"
         id="path3897"
         sodipodi:cx="279.30719"
         sodipodi:cy="341.07343"
         sodipodi:rx="53.033009"
         sodipodi:ry="48.790367"
         d="m 332.3402,341.07343 a 53.033009,48.790367 0 1 1 -106.06602,0 53.033009,48.790367 0 1 1 106.06602,0 z"
         transform="matrix(0.15084945,0,0,0.16396679,957.20179,493.88734)" />
      <path
         transform="matrix(0.15084945,0,0,0.16396679,977.20179,493.88734)"
         d="m 332.3402,341.07343 a 53.033009,48.790367 0 1 1 -106.06602,0 53.033009,48.790367 0 1 1 106.06602,0 z"
         sodipodi:ry="48.790367"
         sodipodi:rx="53.033009"
         sodipodi:cy="341.07343"
         sodipodi:cx="279.30719"
         id="path3899"
         style="fill:#ff00ff;fill-opacity:1;stroke:none"
         sodipodi:type="arc" />
      <path
         sodipodi:type="arc"
         style="fill:#ff00ff;fill-opacity:1;stroke:none"
         id="path3901"
         sodipodi:cx="279.30719"
         sodipodi:cy="341.07343"
         sodipodi:rx="53.033009"
         sodipodi:ry="48.790367"
         d="m 332.3402,341.07343 a 53.033009,48.790367 0 1 1 -106.06602,0 53.033009,48.790367 0 1 1 106.06602,0 z"
         transform="matrix(0.15084945,0,0,0.16396679,997.20179,493.88734)" />
      <path
         transform="matrix(0.15084945,0,0,0.16396679,1017.2018,493.88734)"
         d="m 332.3402,341.07343 a 53.033009,48.790367 0 1 1 -106.06602,0 53.033009,48.790367 0 1 1 106.06602,0 z"
         sodipodi:ry="48.790367"
         sodipodi:rx="53.033009"
         sodipodi:cy="341.07343"
         sodipodi:cx="279.30719"
         id="path3903"
         style="fill:#ff00ff;fill-opacity:1;stroke:none"
         sodipodi:type="arc" />
      <path
         sodipodi:type="arc"
         style="fill:#ff00ff;fill-opacity:1;stroke:none"
         id="path3905"
         sodipodi:cx="279.30719"
         sodipodi:cy="341.07343"
         sodipodi:rx="53.033009"
         sodipodi:ry="48.790367"
         d="m 332.3402,341.07343 a 53.033009,48.790367 0 1 1 -106.06602,0 53.033009,48.790367 0 1 1 106.06602,0 z"
         transform="matrix(0.15084945,0,0,0.16396679,1037.2018,493.88734)" />
      <path
         transform="matrix(0.15084945,0,0,0.16396679,1057.2018,493.88734)"
         d="m 332.3402,341.07343 a 53.033009,48.790367 0 1 1 -106.06602,0 53.033009,48.790367 0 1 1 106.06602,0 z"
         sodipodi:ry="48.790367"
         sodipodi:rx="53.033009"
         sodipodi:cy="341.07343"
         sodipodi:cx="279.30719"
         id="path3907"
         style="fill:#ff00ff;fill-opacity:1;stroke:none"
         sodipodi:type="arc" />
      <path
         sodipodi:type="arc"
         style="fill:#ff00ff;fill-opacity:1;stroke:none"
         id="path3909"
         sodipodi:cx="279.30719"
         sodipodi:cy="341.07343"
         sodipodi:rx="53.033009"
         sodipodi:ry="48.790367"
         d="m 332.3402,341.07343 a 53.033009,48.790367 0 1 1 -106.06602,0 53.033009,48.790367 0 1 1 106.06602,0 z"
         transform="matrix(0.15084945,0,0,0.16396679,1077.2018,493.88734)" />
      <path
         transform="matrix(0.15084945,0,0,0.16396679,1097.2018,493.88734)"
         d="m 332.3402,341.07343 a 53.033009,48.790367 0 1 1 -106.06602,0 53.033009,48.790367 0 1 1 106.06602,0 z"
         sodipodi:ry="48.790367"
         sodipodi:rx="53.033009"
         sodipodi:cy="341.07343"
         sodipodi:cx="279.30719"
         id="path3911"
         style="fill:#ff00ff;fill-opacity:1;stroke:none"
         sodipodi:type="arc" />
      <path
         sodipodi:type="arc"
         style="fill:#ff00ff;fill-opacity:1;stroke:none"
         id="path3913"
         sodipodi:cx="279.30719"
         sodipodi:cy="341.07343"
         sodipodi:rx="53.033009"
         sodipodi:ry="48.790367"
         d="m 332.3402,341.07343 a 53.033009,48.790367 0 1 1 -106.06602,0 53.033009,48.790367 0 1 1 106.06602,0 z"
         transform="matrix(0.15084945,0,0,0.16396679,1117.2018,493.88734)" />
      <path
         transform="matrix(0.15084945,0,0,0.16396679,1137.2018,493.88734)"
         d="m 332.3402,341.07343 a 53.033009,48.790367 0 1 1 -106.06602,0 53.033009,48.790367 0 1 1 106.06602,0 z"
         sodipodi:ry="48.790367"
         sodipodi:rx="53.033009"
         sodipodi:cy="341.07343"
         sodipodi:cx="279.30719"
         id="path3915"
         style="fill:#ff00ff;fill-opacity:1;stroke:none"
         sodipodi:type="arc" />
      <path
         sodipodi:type="arc"
         style="fill:#ff00ff;fill-opacity:1;stroke:none"
         id="path3917"
         sodipodi:cx="279.30719"
         sodipodi:cy="341.07343"
         sodipodi:rx="53.033009"
         sodipodi:ry="48.790367"
         d="m 332.3402,341.07343 a 53.033009,48.790367 0 1 1 -106.06602,0 53.033009,48.790367 0 1 1 106.06602,0 z"
         transform="matrix(0.15084945,0,0,0.16396679,1157.2018,493.88734)" />
      <path
         transform="matrix(0.15084945,0,0,0.16396679,1177.2018,493.88734)"
         d="m 332.3402,341.07343 a 53.033009,48.790367 0 1 1 -106.06602,0 53.033009,48.790367 0 1 1 106.06602,0 z"
         sodipodi:ry="48.790367"
         sodipodi:rx="53.033009"
         sodipodi:cy="341.07343"
         sodipodi:cx="279.30719"
         id="path3919"
         style="fill:#ff00ff;fill-opacity:1;stroke:none"
         sodipodi:type="arc" />
      <path
         sodipodi:type="arc"
         style="fill:#ff00ff;fill-opacity:1;stroke:none"
         id="path3921"
         sodipodi:cx="279.30719"
         sodipodi:cy="341.07343"
         sodipodi:rx="53.033009"
         sodipodi:ry="48.790367"
         d="m 332.3402,341.07343 a 53.033009,48.790367 0 1 1 -106.06602,0 53.033009,48.790367 0 1 1 106.06602,0 z"
         transform="matrix(0.15084945,0,0,0.16396679,1197.2018,493.88734)" />
      <path
         transform="matrix(0.15084945,0,0,0.16396679,1217.2018,493.88734)"
         d="m 332.3402,341.07343 a 53.033009,48.790367 0 1 1 -106.06602,0 53.033009,48.790367 0 1 1 106.06602,0 z"
         sodipodi:ry="48.790367"
         sodipodi:rx="53.033009"
         sodipodi:cy="341.07343"
         sodipodi:cx="279.30719"
         id="path3923"
         style="fill:#ff00ff;fill-opacity:1;stroke:none"
         sodipodi:type="arc" />
      <path
         sodipodi:type="arc"
         style="fill:#ff00ff;fill-opacity:1;stroke:none"
         id="path3925"
         sodipodi:cx="279.30719"
         sodipodi:cy="341.07343"
         sodipodi:rx="53.033009"
         sodipodi:ry="48.790367"
         d="m 332.3402,341.07343 a 53.033009,48.790367 0 1 1 -106.06602,0 53.033009,48.790367 0 1 1 106.06602,0 z"
         transform="matrix(0.15084945,0,0,0.16396679,1237.2018,493.88734)" />
      <path
         transform="matrix(0.15084945,0,0,0.16396679,1257.2018,493.88734)"
         d="m 332.3402,341.07343 a 53.033009,48.790367 0 1 1 -106.06602,0 53.033009,48.790367 0 1 1 106.06602,0 z"
         sodipodi:ry="48.790367"
         sodipodi:rx="53.033009"
         sodipodi:cy="341.07343"
         sodipodi:cx="279.30719"
         id="path3927"
         style="fill:#ff00ff;fill-opacity:1;stroke:none"
         sodipodi:type="arc" />
      <path
         sodipodi:type="arc"
         style="fill:#ff00ff;fill-opacity:1;stroke:none"
         id="path3929"
         sodipodi:cx="279.30719"
         sodipodi:cy="341.07343"
         sodipodi:rx="53.033009"
         sodipodi:ry="48.790367"
         d="m 332.3402,341.07343 a 53.033009,48.790367 0 1 1 -106.06602,0 53.033009,48.790367 0 1 1 106.06602,0 z"
         transform="matrix(0.15084945,0,0,0.16396679,1277.2018,493.88734)" />
    </g>
    <rect
       style="fill:#ff00ff;fill-opacity:1;stroke:none"
       id="rect3963"
       width="100"
       height="100"
       x="910"
       y="966" />
    <rect
       y="966"
       x="660"
       height="100"
       width="200"
       id="rect3965"
       style="fill:#ff00ff;fill-opacity:1;stroke:none" />
    <rect
       y="966"
       x="1060"
       height="100"
       width="200"
       id="rect3969"
       style="fill:#ff00ff;fill-opacity:1;stroke:none" />
  </g>
</svg>
