<?xml version="1.0" encoding="UTF-8" standalone="no"?>
<!-- Created with Inkscape (http://www.inkscape.org/) -->

<svg
   xmlns:dc="http://purl.org/dc/elements/1.1/"
   xmlns:cc="http://creativecommons.org/ns#"
   xmlns:rdf="http://www.w3.org/1999/02/22-rdf-syntax-ns#"
   xmlns:svg="http://www.w3.org/2000/svg"
   xmlns="http://www.w3.org/2000/svg"
   xmlns:sodipodi="http://sodipodi.sourceforge.net/DTD/sodipodi-0.dtd"
   xmlns:inkscape="http://www.inkscape.org/namespaces/inkscape"
   width="512"
   height="512"
   id="svg2"
   version="1.1"
   inkscape:version="0.48.4 r9939"
   sodipodi:docname="logo.svg"
   inkscape:export-filename="C:\Users\flomar\Projects\rFactor2TimeTrial\trunk\QTimeTrial\resources\png\logo.png"
   inkscape:export-xdpi="90"
   inkscape:export-ydpi="90">
  <defs
     id="defs4" />
  <sodipodi:namedview
     id="base"
     pagecolor="#ffffff"
     bordercolor="#666666"
     borderopacity="1.0"
     inkscape:pageopacity="0.0"
     inkscape:pageshadow="2"
     inkscape:zoom="0.7"
     inkscape:cx="35.324015"
     inkscape:cy="242.558"
     inkscape:document-units="px"
     inkscape:current-layer="layer1"
     showgrid="false"
     inkscape:showpageshadow="false"
     inkscape:window-width="1920"
     inkscape:window-height="1018"
     inkscape:window-x="-8"
     inkscape:window-y="-8"
     inkscape:window-maximized="1" />
  <metadata
     id="metadata7">
    <rdf:RDF>
      <cc:Work
         rdf:about="">
        <dc:format>image/svg+xml</dc:format>
        <dc:type
           rdf:resource="http://purl.org/dc/dcmitype/StillImage" />
        <dc:title></dc:title>
      </cc:Work>
    </rdf:RDF>
  </metadata>
  <g
     inkscape:label="Layer 1"
     inkscape:groupmode="layer"
     id="layer1"
     transform="translate(0,-540.36218)">
    <rect
       style="fill:#b3b3b3;fill-opacity:1;stroke:none"
       id="rect3003"
       width="512"
       height="512"
       x="0"
       y="540.36218" />
    <path
       style="opacity:0.25;fill:#ffffff;fill-opacity:1;stroke:none"
       d="m 255.99979,596.36197 c -1.33516,0 -2.67499,0.0228 -4.00391,0.0487 -1.09263,0.0214 -2.18323,0.0588 -3.2715,0.0977 -0.24407,0.009 -0.48857,-0.009 -0.73242,0 -0.1475,0.006 -0.29198,0.0426 -0.43945,0.0488 -2.32649,0.0966 -4.67714,0.21522 -6.98244,0.39062 -0.16223,0.0125 -0.32616,0.0361 -0.48828,0.0487 -2.05343,0.16131 -4.068,0.36307 -6.10353,0.58594 -1.14344,0.12516 -2.28043,0.24635 -3.41798,0.39063 -0.0161,0.002 -0.0328,-0.002 -0.0487,0 -1.78342,0.2267 -3.55382,0.45906 -5.32227,0.73242 -0.75344,0.11641 -1.49548,0.26581 -2.2461,0.39063 -1.79577,0.29868 -3.59185,0.63036 -5.37111,0.97656 -0.26025,0.0506 -0.52137,0.0948 -0.78125,0.14641 -2.00108,0.39762 -3.97795,0.81267 -5.95704,1.26953 -0.47232,0.10906 -0.94499,0.22942 -1.41602,0.3418 -0.0347,0.008 -0.063,0.0405 -0.0977,0.0488 -2.44924,0.58567 -4.91092,1.18061 -7.32423,1.85547 -1.84219,0.51516 -3.64846,1.04516 -5.46876,1.61133 -0.42215,0.13125 -0.8486,0.25661 -1.26954,0.39063 -0.45616,0.14516 -0.91245,0.29108 -1.36719,0.43945 -2.14141,0.69885 -4.28756,1.42879 -6.3965,2.19727 -1.79341,0.6535 -3.55326,1.34783 -5.32227,2.05079 -1.12821,0.44825 -2.25115,0.89909 -3.36915,1.36719 -1.72543,0.72225 -3.42649,1.47727 -5.12697,2.2461 -0.8513,0.38508 -1.69417,0.77527 -2.53906,1.17188 -0.88449,0.415 -1.75937,0.84201 -2.63673,1.26953 -0.91634,0.44672 -1.82594,0.90694 -2.73438,1.36719 -0.27267,0.13813 -0.55813,0.25133 -0.83008,0.39063 -1.62647,0.83308 -3.23371,1.71195 -4.83399,2.58789 -2.07667,1.13671 -4.12128,2.30821 -6.15236,3.51563 -0.16314,0.097 -0.32544,0.1955 -0.48828,0.29297 -2.09051,1.25085 -4.16108,2.53332 -6.20119,3.85743 -1.92128,1.24698 -3.83788,2.54706 -5.7129,3.85743 -0.15516,0.10844 -0.33339,0.18402 -0.48828,0.29297 l -35.83992,-35.83992 -48.828228,48.7794 35.888736,35.83993 c -0.19389,0.27565 -0.3934,0.55339 -0.58593,0.83008 -0.92787,1.33317 -1.7896,2.69617 -2.68556,4.05274 -0.44398,0.67209 -0.93114,1.32422 -1.36719,2.00196 -0.92056,1.43137 -1.800806,2.88963 -2.685546,4.34571 -0.54199,0.89155 -1.08297,1.78494 -1.61133,2.68555 -0.89444,1.52525 -1.7819,3.03913 -2.63673,4.58985 -0.13375,0.2425 -0.25786,0.48932 -0.39062,0.73243 -1.00196,1.83574 -1.98418,3.69638 -2.9297,5.56642 -0.22353,0.4419 -0.46326,0.87458 -0.68359,1.31836 -1.03755,2.09044 -2.01274,4.21655 -2.97852,6.34767 -0.0241,0.053 -0.0737,0.0934 -0.0977,0.1464 -0.97892,2.16517 -1.87997,4.38639 -2.78321,6.59182 -0.0745,0.18204 -0.17009,0.35479 -0.24414,0.53711 -0.86366,2.12689 -1.69841,4.28271 -2.49024,6.44532 -0.16112,0.44024 -0.33017,0.87669 -0.48828,1.31836 -0.63272,1.76696 -1.22263,3.53273 -1.80665,5.32228 -0.14843,0.45474 -0.29426,0.91104 -0.43945,1.36719 -0.63106,1.98213 -1.23624,3.99746 -1.80664,6.00587 -0.0689,0.24276 -0.12735,0.4893 -0.19532,0.73243 -0.55389,1.97919 -1.06848,3.95357 -1.5625,5.95704 -0.15313,0.62061 -0.34102,1.2326 -0.48828,1.85547 -0.46097,1.94988 -0.86611,3.88792 -1.26954,5.85939 -0.0725,0.3541 -0.12469,0.71946 -0.19531,1.07422 -0.0548,0.27558 -0.0928,0.5541 -0.14641,0.83008 -0.3462,1.77926 -0.67787,3.57534 -0.97656,5.37111 -0.12485,0.75063 -0.27421,1.49266 -0.39063,2.2461 -0.0177,0.11422 -0.0314,0.22756 -0.0487,0.34179 -0.32895,2.15284 -0.61919,4.31931 -0.87891,6.49416 -0.0501,0.42031 -0.0989,0.84842 -0.1464,1.26953 -0.1336,1.18282 -0.22891,2.37549 -0.3418,3.56446 -0.19389,2.04154 -0.35622,4.09336 -0.48828,6.15236 -0.0939,1.46444 -0.18194,2.92169 -0.24414,4.39454 -0.008,0.1975 -0.0411,0.38828 -0.0487,0.58594 -0.0372,0.94411 -0.0736,1.8846 -0.0977,2.83204 -0.0436,1.71744 -0.0487,3.4478 -0.0487,5.17579 0,110.45711 89.543248,200.00043 200.000428,200.00043 1.33669,0 2.67349,-0.0228 4.00391,-0.0487 1.0636,-0.0211 2.11438,-0.06 3.17384,-0.0977 0.26036,-0.009 0.52114,0.0109 0.78125,0 0.1475,-0.006 0.29199,-0.0426 0.43946,-0.0488 2.32648,-0.0966 4.67713,-0.21522 6.98243,-0.39062 0.16224,-0.0125 0.32616,-0.0361 0.48828,-0.0487 2.62817,-0.20647 5.21391,-0.47416 7.81252,-0.78125 2.25702,-0.26672 4.50495,-0.53766 6.7383,-0.87891 0.16367,-0.025 0.32473,-0.0722 0.48828,-0.0977 0.16039,-0.025 0.32802,-0.0236 0.48828,-0.0488 0.42753,-0.0675 0.84291,-0.17397 1.26954,-0.24414 2.02616,-0.33317 4.04954,-0.68063 6.0547,-1.07422 0.0975,-0.0191 0.19551,-0.0295 0.29297,-0.0487 0.0311,-0.006 0.0666,0.006 0.0976,0 2.43921,-0.48381 4.86901,-1.03968 7.27541,-1.61133 0.0658,-0.0156 0.12953,-0.0331 0.19531,-0.0488 0.14625,-0.0348 0.29331,-0.0625 0.43946,-0.0977 1.5909,-0.38348 3.1605,-0.79944 4.73633,-1.22071 0.99716,-0.26646 1.98759,-0.54865 2.97853,-0.83008 0.57032,-0.16198 1.14073,-0.32137 1.70898,-0.48828 1.57146,-0.46156 3.13239,-0.91717 4.68751,-1.41602 0.0494,-0.0158 0.0972,-0.033 0.14641,-0.0488 0.0638,-0.0205 0.13156,-0.0283 0.19531,-0.0487 2.34855,-0.75803 4.67275,-1.59977 6.98244,-2.44141 1.93294,-0.70455 3.85716,-1.43528 5.76173,-2.19727 1.05814,-0.42334 2.12471,-0.82872 3.17384,-1.26953 0.45708,-0.19205 0.91184,-0.3906 1.36719,-0.58594 2.16916,-0.9306 4.31649,-1.92535 6.44532,-2.92969 1.0909,-0.51468 2.19151,-1.02879 3.27149,-1.56251 0.2611,-0.12906 0.52082,-0.26045 0.78126,-0.39062 0.11765,-0.0588 0.22436,-0.13641 0.34179,-0.19532 1.54951,-0.77828 3.11253,-1.57552 4.63869,-2.39258 0.55073,-0.29484 1.11251,-0.57906 1.66016,-0.87891 1.49851,-0.82053 2.96842,-1.68156 4.44336,-2.53907 0.68263,-0.39692 1.37332,-0.76712 2.05079,-1.17187 0.42878,-0.25611 0.84285,-0.52204 1.26953,-0.78126 1.6923,-1.02826 3.37045,-2.09723 5.02931,-3.17383 1.674,-1.08664 3.34146,-2.18544 4.98048,-3.32032 0.40503,-0.28031 0.81786,-0.54686 1.22071,-0.83008 l 35.83945,35.83976 48.82823,-48.7794 -35.88875,-35.88875 c 1.18921,-1.69106 2.32922,-3.39793 3.4668,-5.12696 0.23183,-0.35236 0.50277,-0.67149 0.73243,-1.02539 0.19873,-0.30616 0.38883,-0.62043 0.58594,-0.92774 1.11142,-1.7336 2.21266,-3.50383 3.27149,-5.27345 0.0302,-0.0505 0.0675,-0.0961 0.0977,-0.1464 0.0672,-0.11266 0.12829,-0.22905 0.19532,-0.3418 0.90811,-1.52758 1.7685,-3.0852 2.63672,-4.63868 0.28355,-0.50735 0.59967,-1.00363 0.87891,-1.51368 0.10484,-0.1915 0.18872,-0.39406 0.29297,-0.58594 0.35334,-0.65045 0.67908,-1.29833 1.02539,-1.95313 0.40552,-0.76648 0.82491,-1.52258 1.22071,-2.29492 0.30704,-0.59946 0.62659,-1.20371 0.92773,-1.80665 0.0747,-0.14953 0.16982,-0.28973 0.24414,-0.43945 1.03755,-2.09044 2.01274,-4.21656 2.97853,-6.34767 0.0238,-0.0525 0.0739,-0.0941 0.0976,-0.14641 0.97893,-2.16516 1.87998,-4.38638 2.78321,-6.59181 0.0277,-0.0677 0.07,-0.12766 0.0977,-0.19531 0.29669,-0.72666 0.59055,-1.46638 0.87891,-2.19727 0.63481,-1.6099 1.26153,-3.25281 1.85547,-4.88283 0.51878,-1.42328 1.02652,-2.85871 1.51367,-4.29688 0.10844,-0.32052 0.1861,-0.65531 0.29297,-0.97657 0.41171,-1.23631 0.83263,-2.46402 1.22071,-3.71094 0.48697,-1.56564 0.96675,-3.15446 1.41602,-4.73634 0.24486,-0.8622 0.49887,-1.72099 0.73242,-2.5879 0.48785,-1.81114 0.92933,-3.63766 1.36719,-5.46876 0.008,-0.0344 0.0406,-0.0633 0.0488,-0.0976 0.11235,-0.47111 0.23275,-0.94363 0.3418,-1.41602 0.3723,-1.61279 0.69238,-3.25538 1.02539,-4.88283 0.20608,-1.00756 0.39508,-2.01431 0.58594,-3.02735 0.33117,-1.75686 0.64283,-3.50069 0.92774,-5.27344 0.0291,-0.18047 0.0691,-0.35649 0.0977,-0.53711 0.0509,-0.32246 0.0972,-0.6536 0.14641,-0.97657 0.33892,-2.21808 0.66233,-4.44802 0.92774,-6.68947 0.003,-0.0322 -0.003,-0.0656 0,-0.0976 0.12625,-1.06936 0.2325,-2.14818 0.3418,-3.22267 0.15421,-1.51917 0.31937,-3.06082 0.43945,-4.58985 0.0125,-0.16214 0.0364,-0.32603 0.0488,-0.48828 0.17541,-2.3053 0.24522,-4.60712 0.3418,-6.93361 0.006,-0.1631 0.0425,-0.3251 0.0487,-0.48828 0.0366,-0.93157 0.0739,-1.8484 0.0977,-2.78321 0.0437,-1.72221 0.0977,-3.44298 0.0977,-5.17579 0,-110.45723 -89.54325,-200.00043 -200.00043,-200.00043 z m 0,68.94546 c 72.36852,0 131.00614,58.68641 131.00614,131.05497 0,1.13075 -0.0203,2.24525 -0.0487,3.36915 -0.0181,0.71656 -0.0192,1.43478 -0.0487,2.14844 -0.042,1.00867 -0.13062,2.02471 -0.19531,3.02735 -0.005,0.0806 0.005,0.16361 0,0.24414 -0.0283,0.42531 -0.0653,0.84535 -0.0977,1.26953 -0.006,0.0809 0.006,0.16322 0,0.24415 -0.0802,1.02769 -0.1893,2.05527 -0.29297,3.07617 -0.11187,1.10126 -0.20286,2.22731 -0.34179,3.32032 -0.0311,0.24411 -0.0652,0.48874 -0.0977,0.73243 -0.1125,0.84741 -0.26194,1.69684 -0.39063,2.53907 -0.0875,0.57126 -0.19809,1.14017 -0.29297,1.70898 -0.0844,0.50672 -0.1539,1.00896 -0.24414,1.51368 -0.16203,0.90602 -0.30772,1.83492 -0.48828,2.73438 -0.0325,0.16228 -0.0645,0.3262 -0.0977,0.48828 -0.10797,0.52777 -0.27623,1.03707 -0.39062,1.5625 -0.11672,0.53674 -0.21847,1.07707 -0.3418,1.61134 -0.0373,0.1617 -0.0597,0.32679 -0.0977,0.48828 -0.0613,0.26083 -0.1325,0.52103 -0.19531,0.78125 -0.24961,1.03317 -0.5073,2.05272 -0.78125,3.07618 -0.0214,0.0802 -0.0272,0.164 -0.0488,0.24414 -0.1536,0.57055 -0.32713,1.14155 -0.48828,1.70899 -0.22305,0.78405 -0.44639,1.56578 -0.6836,2.34375 -0.40989,1.34435 -0.86678,2.67829 -1.31836,4.00392 -0.45158,1.32563 -0.92353,2.64893 -1.41602,3.95508 -0.38697,1.02633 -0.76008,2.06231 -1.17188,3.07618 -0.11234,0.27644 -0.22768,0.5546 -0.34179,0.83008 -0.12344,0.29796 -0.26508,0.58207 -0.39063,0.87891 -0.41638,0.98455 -0.82997,1.9576 -1.26953,2.92969 -0.4358,0.96365 -0.8601,1.92982 -1.31837,2.88087 -0.74384,1.54382 -1.54194,3.08035 -2.34375,4.58985 -0.19027,0.35818 -0.39246,0.71804 -0.58594,1.07423 -0.0977,0.17976 -0.19449,0.35784 -0.29297,0.53711 -0.37064,0.67468 -0.74094,1.33456 -1.12305,2.00195 l -64.99037,-64.99037 41.89462,-41.89462 -48.7794,-48.7794 -41.89462,41.89462 -64.99038,-64.99038 c 0.55792,-0.31926 1.09713,-0.66529 1.66016,-0.97656 0.52292,-0.2891 1.03524,-0.5968 1.5625,-0.87891 1.44126,-0.77169 2.87292,-1.47849 4.34572,-2.19727 0.40492,-0.19763 0.81345,-0.39238 1.2207,-0.58594 1.58038,-0.75113 3.17073,-1.50833 4.78517,-2.19727 0.2737,-0.11672 0.55542,-0.22681 0.83008,-0.3418 0.3572,-0.14968 0.71542,-0.2929 1.07422,-0.43945 1.03374,-0.42208 2.07827,-0.82447 3.12501,-1.22071 0.0966,-0.0366 0.19631,-0.0614 0.29297,-0.0977 1.26226,-0.47438 2.52816,-0.931 3.8086,-1.36719 0.0825,-0.0281 0.16153,-0.0697 0.24414,-0.0977 0.48545,-0.16428 0.97686,-0.32956 1.46485,-0.48828 0.53256,-0.17322 1.0758,-0.32172 1.61133,-0.48828 0.74955,-0.23315 1.49084,-0.46363 2.2461,-0.6836 0.82728,-0.24095 1.65627,-0.45861 2.49024,-0.68359 0.48173,-0.13 0.98094,-0.26607 1.46484,-0.39063 0.30718,-0.0791 0.61971,-0.16728 0.92774,-0.24414 0.74103,-0.18499 1.50013,-0.3648 2.2461,-0.53711 1.21684,-0.28089 2.43257,-0.53452 3.66212,-0.78125 0.05,-0.009 0.0964,-0.0389 0.1464,-0.0487 1.3419,-0.26766 2.69641,-0.5061 4.05274,-0.73243 1.25052,-0.20858 2.49754,-0.41306 3.75978,-0.58594 0.2763,-0.0378 0.55323,-0.0616 0.83008,-0.0976 0.14625,-0.0191 0.29308,-0.0302 0.43945,-0.0488 1.16896,-0.14844 2.33727,-0.27318 3.51564,-0.39063 1.20001,-0.11969 2.40395,-0.25476 3.61328,-0.3418 0.77618,-0.0559 1.56388,-0.0555 2.34376,-0.0976 0.9242,-0.05 1.854,-0.11578 2.78321,-0.14641 1.46663,-0.0486 2.9649,-0.0977 4.44337,-0.0977 z m -113.8186,66.0646 64.99037,64.99037 -41.89462,41.89462 48.82823,48.7794 41.89462,-41.89462 64.99037,64.99037 c -0.0825,0.0472 -0.16157,0.0994 -0.24414,0.14641 -1.1172,0.63636 -2.28056,1.2513 -3.41797,1.85547 -1.22061,0.64836 -2.41898,1.29376 -3.66212,1.90431 -0.0653,0.032 -0.12984,0.0656 -0.19531,0.0976 -1.17886,0.57653 -2.36609,1.11829 -3.56446,1.66016 -0.1593,0.072 -0.32866,0.12391 -0.48829,0.19531 -1.10889,0.4961 -2.2442,0.99891 -3.36914,1.46485 -1.28591,0.53261 -2.55127,1.07003 -3.85743,1.5625 -0.16183,0.0609 -0.32614,0.135 -0.48829,0.19532 -0.56273,0.20959 -1.14262,0.38389 -1.70898,0.58594 -0.66671,0.23782 -1.33032,0.45631 -2.00196,0.68359 -0.44121,0.14938 -0.87507,0.29474 -1.31836,0.43946 -0.81351,0.26571 -1.62099,0.53111 -2.44142,0.78125 -1.34434,0.40989 -2.69044,0.80444 -4.05274,1.17187 -0.483,0.13032 -0.97964,0.26576 -1.46485,0.39063 -2.09158,0.5383 -4.21702,1.02863 -6.34766,1.46485 -0.16319,0.0334 -0.32488,0.0648 -0.48829,0.0977 -1.39592,0.28022 -2.78763,0.5458 -4.19922,0.78126 -1.25052,0.20857 -2.49754,0.41306 -3.75978,0.58593 -0.16259,0.0222 -0.3255,0.0272 -0.48828,0.0487 -0.11406,0.0156 -0.2276,0.0339 -0.3418,0.0488 -0.14594,0.0191 -0.29333,0.0303 -0.43945,0.0488 -1.16896,0.14844 -2.33727,0.27318 -3.51564,0.39063 -1.44062,0.14359 -2.89169,0.2453 -4.34571,0.3418 -1.45402,0.0966 -2.92791,0.1955 -4.39454,0.24414 -1.46663,0.0486 -2.91607,0.0488 -4.39454,0.0488 -2.26152,0 -4.55374,-0.0333 -6.78712,-0.14641 -1.11669,-0.0566 -2.21118,-0.11094 -3.32032,-0.19531 -67.65771,-5.14798 -120.94753,-61.68818 -120.94753,-130.66434 0,-1.12108 0.0208,-2.25482 0.0488,-3.36915 0.0186,-0.73283 0.0183,-1.46747 0.0487,-2.19727 0.0433,-1.03635 0.12813,-2.04621 0.19532,-3.07618 0.0109,-0.16384 0.0375,-0.32461 0.0487,-0.48828 0.0367,-0.53388 0.0545,-1.07924 0.0977,-1.61133 0.073,-0.89669 0.15328,-1.79407 0.24414,-2.68556 0.1336,-1.31547 0.31607,-2.60258 0.48829,-3.90626 0.006,-0.0478 -0.006,-0.0987 0,-0.1464 0.18829,-1.41047 0.40193,-2.85216 0.63476,-4.24806 0.082,-0.49176 0.15666,-0.97495 0.24414,-1.46484 0.0291,-0.16305 0.068,-0.32544 0.0977,-0.48829 0.36245,-1.98542 0.76985,-3.9551 1.22071,-5.90821 0.0373,-0.16147 0.0598,-0.32705 0.0976,-0.48828 0.0617,-0.26277 0.13203,-0.51912 0.19531,-0.78126 0.24961,-1.03317 0.5073,-2.05272 0.78126,-3.07618 0.10968,-0.40965 0.22828,-0.81264 0.34179,-1.2207 0.11313,-0.40738 0.22483,-0.81494 0.3418,-1.22071 0.25035,-0.86708 0.51358,-1.7283 0.78125,-2.58789 0.0259,-0.0833 0.0716,-0.16086 0.0977,-0.24414 0.31708,-1.01104 0.63581,-2.02704 0.97656,-3.02735 0.45158,-1.32563 0.92355,-2.64893 1.41602,-3.95509 0.43066,-1.14221 0.85697,-2.29122 1.31837,-3.41798 0.12156,-0.297 0.2669,-0.583 0.39062,-0.87891 0.18245,-0.43664 0.35008,-0.88412 0.53711,-1.31836 0.70002,-1.62528 1.43416,-3.24349 2.19727,-4.83399 0.0409,-0.0853 0.10547,-0.15897 0.14641,-0.24414 0.86694,-1.79473 1.78922,-3.5742 2.73438,-5.32228 0.17702,-0.32742 0.35739,-0.65081 0.53711,-0.97656 0.33163,-0.60104 0.63583,-1.21141 0.97656,-1.80665 z"
       id="path3872"
       inkscape:connector-curvature="0" />
  </g>
</svg>
